<svg width="26px" height="26px" viewBox="0 0 26 26" xmlns="http://www.w3.org/2000/svg" xmlns:xlink="http://www.w3.org/1999/xlink"><defs><path d="M12 0C5.373 0 0 5.373 0 12s5.373 12 12 12 12-5.373 12-12S18.627 0 12 0Z" id="a"/></defs><g fill="none" fill-rule="evenodd"><circle fill="#FFFFFF" cx="13" cy="13" r="13"/><g transform="translate(1.000000, 1.000000)"><mask id="b" fill="white"><use xlink:href="#a"/></mask><use fill="#FFFFFF" fill-rule="nonzero" xlink:href="#a"/><g mask="url(#b)"><path d="M16.333-.999v8.667H38v8.666H16.334L16.333 25H7.667v-8.666h-21.666V7.667H7.667V-.998h8.666Z" fill="#FFFFFF"/><path d="M38-.999v2.942L17.827 12 38 22.058V25L32.245 25 12 14.906-8.244 25H-14V22.06L6.174 12-14 1.941v-2.94h5.752L12 9.096 32.249-.999H38Z" fill="#FFFFFF"/><path d="M3.338 16.334h3.887L-10.156 25H-14v-.02l17.337-8.646Zm21.18 0L38 23.056v1.936l-17.365-8.658h3.884ZM38-.985 20.646 7.667H16.76L34.143-.999H38v.014Zm-52-.007L3.37 7.668H-.516L-14 .944V-.992Z" fill="#C8102E"/><path d="M14.6-.999v10.4H38v5.2H14.6V25H9.4V14.6h-23.399v-5.2H9.4V-1h5.2Z" fill="#C8102E"/><g fill="#012169"><path d="M7.667 25v-7.929L-1 21.407v3.594zM16.333 25v-7.929L25 21.407v3.594zM7.667-1v7.93L-1 2.593V-1zM16.333-1v7.93L25 2.593V-1z"/></g></g></g></g></svg>